<svg xmlns="http://www.w3.org/2000/svg" viewBox="0 0 23.81 16.17"><title/><g data-name="Camada 2" id="Camada_2"><g data-name="Camada 1" id="Camada_1-2"><path d="M21.88,0H1.94A1.94,1.94,0,0,0,0,1.94V14.23a1.94,1.94,0,0,0,1.94,1.94H21.88a1.94,1.94,0,0,0,1.94-1.94V1.94A1.94,1.94,0,0,0,21.88,0ZM1,3.73H22.81V6.09H1ZM1.94,1H21.88a.94.94,0,0,1,.94.94v.79H1V1.94A.94.94,0,0,1,1.94,1ZM21.88,15.17H1.94A.94.94,0,0,1,1,14.23V7.09H22.81v7.13A.94.94,0,0,1,21.88,15.17Z"/><path d="M19.43,9.79a1.92,1.92,0,0,0-1.44.65A1.94,1.94,0,1,0,18,13a1.93,1.93,0,1,0,1.44-3.22Zm-2.87,2.87a.94.94,0,1,1,.94-.94A.94.94,0,0,1,16.56,12.66Zm2.87,0a.94.94,0,1,1,.94-.94A.94.94,0,0,1,19.43,12.66Z"/></g></g></svg>
